<svg width="108" height="27" viewBox="0 0 108 27" fill="none" xmlns="http://www.w3.org/2000/svg">
<path fill-rule="evenodd" clip-rule="evenodd" d="M0.733002 10.4132C0.598702 10.5082 0.410312 10.408 0.410357 10.2435C0.410535 9.58704 0.411624 8.98149 0.418275 8.37593C0.418275 8.297 0.525078 8.2032 0.603475 8.14715C3.32202 6.1789 6.04245 4.21407 8.76478 2.25268C9.33265 1.84088 9.89806 1.42908 10.4635 1.01728C10.8404 0.742741 11.2174 0.468206 11.595 0.193672C11.9473 -0.06256 11.962 -0.0614161 12.3302 0.202823C13.5906 1.10574 14.8499 2.00865 16.108 2.91156C17.3056 3.76643 18.5046 4.6213 19.7052 5.47617C20.9058 6.33103 22.1041 7.16989 23.3001 7.99273C23.3799 8.04043 23.4448 8.10962 23.4876 8.19249C23.5303 8.27536 23.5492 8.36861 23.5422 8.46172C23.5331 10.478 23.5331 12.4947 23.5422 14.5118C23.5473 15.5977 23.5608 16.6836 23.5744 17.7696L23.5744 17.7703C23.5819 18.3737 23.5895 18.977 23.5956 19.5804C23.5956 19.9761 23.5956 19.9773 23.2161 19.9784H20.6812L8.55685 20.0356H8.55683C8.36033 20.0356 8.26262 20.0356 8.21404 19.9868C8.166 19.9385 8.166 19.8424 8.166 19.6513C8.166 19.5108 8.16701 19.3703 8.16802 19.23C8.17004 18.9499 8.17206 18.6704 8.166 18.393C8.15918 18.1825 8.22281 18.1116 8.43982 18.1116C11.5909 18.12 14.7423 18.1223 17.8941 18.1185H20.7414C20.879 18.1185 21.0162 18.1051 21.1534 18.0917C21.2701 18.0804 21.3869 18.069 21.5038 18.0658C21.6858 18.0658 21.6857 17.948 21.6856 17.8221L21.6856 17.813C21.6856 17.4912 21.6867 17.1693 21.6879 16.8475V16.8474C21.6902 16.2039 21.6924 15.5606 21.6856 14.9179C21.68 14.1828 21.671 13.4486 21.662 12.7141L21.662 12.7131L21.662 12.7128C21.6493 11.6737 21.6367 10.634 21.6333 9.59075C21.6472 9.45826 21.623 9.32455 21.5636 9.20551C21.5042 9.08648 21.412 8.98713 21.2982 8.91928C20.7664 8.55653 20.2432 8.17861 19.7201 7.80067L19.72 7.80064L19.72 7.80062C19.4183 7.58267 19.1167 7.36472 18.8133 7.14968C16.5886 5.57263 14.364 3.99673 12.1393 2.42197C11.9734 2.30758 11.862 2.295 11.6939 2.42197C10.7591 3.1004 9.82254 3.7767 8.88575 4.45313L8.88552 4.4533C7.75795 5.26748 6.63013 6.08185 5.50503 6.90031C4.42349 7.68791 3.34821 8.48233 2.27283 9.27683C1.7598 9.65585 1.24676 10.0349 0.733002 10.4132ZM2.32027 17.5785C2.32027 17.8969 2.31951 18.2152 2.31875 18.5336V18.5336C2.31724 19.1705 2.31572 19.8076 2.32027 20.4451C2.33049 21.5124 2.35322 22.5808 2.37821 23.648C2.37821 23.8391 2.35435 23.9512 2.12484 23.9523C1.81367 23.9523 1.50206 23.9647 1.19056 23.9771C1.0016 23.9846 0.812683 23.9922 0.623927 23.9969C0.453601 23.9969 0.458167 23.8827 0.46242 23.7763C0.463075 23.7599 0.463723 23.7437 0.463723 23.7281V21.2642C0.446301 18.6286 0.425471 15.9935 0.401232 13.3587C0.392705 13.2517 0.414291 13.1444 0.463521 13.0491C0.512751 12.9538 0.587635 12.8744 0.6796 12.82C1.91502 11.9498 3.14439 11.0728 4.36769 10.189C6.81961 8.41978 9.26849 6.64904 11.7143 4.87677C11.9109 4.73378 12.0393 4.73836 12.2336 4.87677C13.7811 6.01074 15.3339 7.13748 16.892 8.25697C17.3099 8.55643 17.734 8.84881 18.1578 9.14101C18.5856 9.43591 19.0131 9.73064 19.4337 10.0323C19.4909 10.0747 19.539 10.1283 19.5753 10.1898C19.6116 10.2513 19.6353 10.3195 19.645 10.3903C19.6633 11.3817 19.6746 12.373 19.6859 13.3643C19.6949 14.1575 19.704 14.9506 19.7166 15.7437C19.7166 16.0206 19.662 16.1395 19.3598 16.1212C18.9435 16.1001 18.5263 16.1001 18.11 16.1212C17.8634 16.1327 17.7839 16.0595 17.7862 15.8009C17.7926 15.0676 17.7924 14.3343 17.7923 13.601C17.7921 12.901 17.792 12.201 17.7975 11.501C17.8065 11.3938 17.7848 11.2863 17.7351 11.191C17.6853 11.0958 17.6097 11.0168 17.5169 10.9634C17.1994 10.75 16.8895 10.5241 16.5792 10.2978L16.579 10.2977C16.4119 10.1759 16.2448 10.054 16.0762 9.93391C15.5875 9.59072 15.0978 9.24753 14.6081 8.90434L14.6077 8.90407C13.7917 8.33224 12.9758 7.76041 12.1643 7.18857C11.9893 7.06389 11.8814 7.11765 11.7405 7.21831C10.6634 7.99791 9.58452 8.77071 8.50631 9.54301L8.50559 9.54353L8.50531 9.54372C7.70596 10.1163 6.907 10.6886 6.10948 11.2631C5.64382 11.6 5.17991 11.938 4.71644 12.2757L4.71638 12.2757C3.99814 12.799 3.28096 13.3214 2.56001 13.838C2.48041 13.8862 2.41559 13.9557 2.37268 14.0386C2.32978 14.1216 2.31046 14.2148 2.31686 14.3082C2.32343 15.0964 2.32228 15.884 2.32114 16.671V16.671V16.6711C2.32071 16.9736 2.32027 17.2761 2.32027 17.5785ZM6.20947 14.0236C6.20947 13.8789 6.04212 13.7809 5.92997 13.8723C5.7756 13.9819 5.62224 14.0927 5.46893 14.2034C5.15955 14.4269 4.85038 14.6503 4.53358 14.8629C4.44965 14.9137 4.38179 14.9874 4.33793 15.0755C4.29407 15.1636 4.27602 15.2625 4.28589 15.3605C4.3071 18.1013 4.32755 20.8421 4.34724 23.5828C4.34837 23.7631 4.34866 23.8543 4.39441 23.9005C4.44127 23.9477 4.53584 23.9477 4.72787 23.9477C8.33264 23.9233 11.937 23.905 15.5411 23.8928C18.1104 23.8852 20.6827 23.8852 23.2581 23.8928C23.5081 23.8928 23.6137 23.8391 23.599 23.5622C23.578 23.1431 23.578 22.7231 23.599 22.304C23.6103 22.0363 23.5297 21.9608 23.2638 21.9608L23.0341 21.964C20.9678 21.9927 18.9015 22.0214 16.8352 22.0214C15.1218 22.0254 13.4084 22.0254 11.6952 22.0254C9.98193 22.0254 8.26883 22.0254 6.55601 22.0294C6.28673 22.0306 6.20265 21.9619 6.20265 21.6794C6.21218 20.3032 6.21114 18.9271 6.21011 17.5509C6.20979 17.1209 6.20947 16.6908 6.20947 16.2608V14.0236Z" fill="#9DC4F8"/>
<path d="M32.4062 17.7363V15.3242H38.6367V21.0273C38.0312 21.6133 37.1523 22.1309 36 22.5801C34.8542 23.0228 33.6921 23.2441 32.5137 23.2441C31.0163 23.2441 29.7109 22.9316 28.5977 22.3066C27.4844 21.6751 26.6478 20.7767 26.0879 19.6113C25.528 18.4395 25.248 17.1667 25.248 15.793C25.248 14.3021 25.5605 12.9772 26.1855 11.8184C26.8105 10.6595 27.7253 9.77083 28.9297 9.15234C29.8477 8.67708 30.9902 8.43945 32.3574 8.43945C34.1348 8.43945 35.5215 8.8138 36.5176 9.5625C37.5202 10.3047 38.1647 11.3333 38.4512 12.6484L35.5801 13.1855C35.3783 12.4824 34.9974 11.929 34.4375 11.5254C33.8841 11.1152 33.1908 10.9102 32.3574 10.9102C31.0944 10.9102 30.0885 11.3105 29.3398 12.1113C28.5977 12.9121 28.2266 14.1003 28.2266 15.6758C28.2266 17.375 28.6042 18.651 29.3594 19.5039C30.1146 20.3503 31.1042 20.7734 32.3281 20.7734C32.9336 20.7734 33.5391 20.6562 34.1445 20.4219C34.7565 20.181 35.2806 19.8913 35.7168 19.5527V17.7363H32.4062ZM38.6582 17.668C38.6582 16.7565 38.8828 15.8743 39.332 15.0215C39.7812 14.1686 40.416 13.5176 41.2363 13.0684C42.0632 12.6191 42.9844 12.3945 44 12.3945C45.569 12.3945 46.8548 12.9056 47.8574 13.9277C48.86 14.9434 49.3613 16.2292 49.3613 17.7852C49.3613 19.3542 48.8535 20.6562 47.8379 21.6914C46.8288 22.7201 45.556 23.2344 44.0195 23.2344C43.069 23.2344 42.1608 23.0195 41.2949 22.5898C40.4355 22.1602 39.7812 21.5319 39.332 20.7051C38.8828 19.8717 38.6582 18.8594 38.6582 17.668ZM41.4707 17.8145C41.4707 18.8431 41.7148 19.6309 42.2031 20.1777C42.6914 20.7246 43.2936 20.998 44.0098 20.998C44.7259 20.998 45.3249 20.7246 45.8066 20.1777C46.2949 19.6309 46.5391 18.8366 46.5391 17.7949C46.5391 16.7793 46.2949 15.998 45.8066 15.4512C45.3249 14.9043 44.7259 14.6309 44.0098 14.6309C43.2936 14.6309 42.6914 14.9043 42.2031 15.4512C41.7148 15.998 41.4707 16.7858 41.4707 17.8145ZM48.8848 17.668C48.8848 16.7565 49.1094 15.8743 49.5586 15.0215C50.0078 14.1686 50.6426 13.5176 51.4629 13.0684C52.2897 12.6191 53.2109 12.3945 54.2266 12.3945C55.7956 12.3945 57.0814 12.9056 58.084 13.9277C59.0866 14.9434 59.5879 16.2292 59.5879 17.7852C59.5879 19.3542 59.0801 20.6562 58.0645 21.6914C57.0553 22.7201 55.7826 23.2344 54.2461 23.2344C53.2956 23.2344 52.3874 23.0195 51.5215 22.5898C50.6621 22.1602 50.0078 21.5319 49.5586 20.7051C49.1094 19.8717 48.8848 18.8594 48.8848 17.668ZM51.6973 17.8145C51.6973 18.8431 51.9414 19.6309 52.4297 20.1777C52.918 20.7246 53.5202 20.998 54.2363 20.998C54.9525 20.998 55.5514 20.7246 56.0332 20.1777C56.5215 19.6309 56.7656 18.8366 56.7656 17.7949C56.7656 16.7793 56.5215 15.998 56.0332 15.4512C55.5514 14.9043 54.9525 14.6309 54.2363 14.6309C53.5202 14.6309 52.918 14.9043 52.4297 15.4512C51.9414 15.998 51.6973 16.7858 51.6973 17.8145ZM69.2578 23H66.709V21.4766C66.2858 22.069 65.7845 22.5117 65.2051 22.8047C64.6322 23.0911 64.0527 23.2344 63.4668 23.2344C62.2754 23.2344 61.2533 22.7559 60.4004 21.7988C59.554 20.8353 59.1309 19.4941 59.1309 17.7754C59.1309 16.0176 59.5443 14.6829 60.3711 13.7715C61.1979 12.8535 62.2428 12.3945 63.5059 12.3945C64.6647 12.3945 65.6673 12.8763 66.5137 13.8398V8.68359H69.2578V23ZM61.9336 17.5898C61.9336 18.6966 62.0866 19.4974 62.3926 19.9922C62.8353 20.7083 63.4538 21.0664 64.248 21.0664C64.8796 21.0664 65.4167 20.7995 65.8594 20.2656C66.3021 19.7253 66.5234 18.9212 66.5234 17.8535C66.5234 16.6621 66.3086 15.806 65.8789 15.2852C65.4492 14.7578 64.8991 14.4941 64.2285 14.4941C63.5775 14.4941 63.0306 14.7546 62.5879 15.2754C62.1517 15.7897 61.9336 16.5612 61.9336 17.5898ZM69.1152 19.2734L71.3652 19.0547C71.5007 19.8099 71.7741 20.3646 72.1855 20.7188C72.6022 21.0729 73.1621 21.25 73.8652 21.25C74.61 21.25 75.1699 21.0938 75.5449 20.7812C75.9251 20.4635 76.1152 20.0938 76.1152 19.6719C76.1152 19.401 76.0345 19.1719 75.873 18.9844C75.7168 18.7917 75.4408 18.625 75.0449 18.4844C74.7741 18.3906 74.1569 18.224 73.1934 17.9844C71.9538 17.6771 71.084 17.2995 70.584 16.8516C69.8809 16.2214 69.5293 15.4531 69.5293 14.5469C69.5293 13.9635 69.6934 13.4193 70.0215 12.9141C70.3548 12.4036 70.8314 12.0156 71.4512 11.75C72.0762 11.4844 72.8288 11.3516 73.709 11.3516C75.1465 11.3516 76.2272 11.6667 76.9512 12.2969C77.6803 12.9271 78.0632 13.7682 78.0996 14.8203L75.7871 14.9219C75.6882 14.3333 75.4746 13.9115 75.1465 13.6562C74.8236 13.3958 74.3366 13.2656 73.6855 13.2656C73.0137 13.2656 72.4876 13.4036 72.1074 13.6797C71.8626 13.8568 71.7402 14.0938 71.7402 14.3906C71.7402 14.6615 71.8548 14.8932 72.084 15.0859C72.3757 15.3307 73.084 15.5859 74.209 15.8516C75.334 16.1172 76.1647 16.3932 76.7012 16.6797C77.2428 16.9609 77.6647 17.349 77.9668 17.8438C78.2741 18.3333 78.4277 18.9401 78.4277 19.6641C78.4277 20.3203 78.2454 20.9349 77.8809 21.5078C77.5163 22.0807 77.0007 22.5078 76.334 22.7891C75.6673 23.0651 74.8366 23.2031 73.8418 23.2031C72.3939 23.2031 71.2819 22.8698 70.5059 22.2031C69.7298 21.5312 69.2663 20.5547 69.1152 19.2734ZM78.2949 14.7031H80.3418V15.9219C80.6074 15.5052 80.9668 15.1667 81.4199 14.9062C81.873 14.6458 82.3757 14.5156 82.9277 14.5156C83.8913 14.5156 84.709 14.8932 85.3809 15.6484C86.0527 16.4036 86.3887 17.4557 86.3887 18.8047C86.3887 20.1901 86.0501 21.2682 85.373 22.0391C84.696 22.8047 83.8757 23.1875 82.9121 23.1875C82.4538 23.1875 82.0371 23.0964 81.6621 22.9141C81.2923 22.7318 80.9017 22.4193 80.4902 21.9766V26.1562H78.2949V14.7031ZM80.4668 18.7109C80.4668 19.6432 80.6517 20.3333 81.0215 20.7812C81.3913 21.224 81.8418 21.4453 82.373 21.4453C82.8835 21.4453 83.3079 21.2422 83.6465 20.8359C83.985 20.4245 84.1543 19.7526 84.1543 18.8203C84.1543 17.9505 83.9798 17.3047 83.6309 16.8828C83.2819 16.4609 82.8496 16.25 82.334 16.25C81.7975 16.25 81.3522 16.4583 80.998 16.875C80.6439 17.2865 80.4668 17.8984 80.4668 18.7109ZM87.7793 17.2344L85.7871 16.875C86.0111 16.0729 86.3965 15.4792 86.9434 15.0938C87.4902 14.7083 88.3027 14.5156 89.3809 14.5156C90.36 14.5156 91.0892 14.6328 91.5684 14.8672C92.0475 15.0964 92.3835 15.3906 92.5762 15.75C92.7741 16.1042 92.873 16.7578 92.873 17.7109L92.8496 20.2734C92.8496 21.0026 92.8835 21.5417 92.9512 21.8906C93.0241 22.2344 93.1569 22.6042 93.3496 23H91.1777C91.1204 22.8542 91.0501 22.638 90.9668 22.3516C90.9303 22.2214 90.9043 22.1354 90.8887 22.0938C90.5137 22.4583 90.1126 22.7318 89.6855 22.9141C89.2585 23.0964 88.8027 23.1875 88.3184 23.1875C87.4642 23.1875 86.7897 22.9557 86.2949 22.4922C85.8053 22.0286 85.5605 21.4427 85.5605 20.7344C85.5605 20.2656 85.6725 19.849 85.8965 19.4844C86.1204 19.1146 86.4329 18.8333 86.834 18.6406C87.2402 18.4427 87.8236 18.2708 88.584 18.125C89.61 17.9323 90.321 17.7526 90.7168 17.5859V17.3672C90.7168 16.9453 90.6126 16.6458 90.4043 16.4688C90.196 16.2865 89.8027 16.1953 89.2246 16.1953C88.834 16.1953 88.5293 16.2734 88.3105 16.4297C88.0918 16.5807 87.9147 16.849 87.7793 17.2344ZM90.7168 19.0156C90.4355 19.1094 89.9902 19.2214 89.3809 19.3516C88.7715 19.4818 88.373 19.6094 88.1855 19.7344C87.8991 19.9375 87.7559 20.1953 87.7559 20.5078C87.7559 20.8151 87.8704 21.0807 88.0996 21.3047C88.3288 21.5286 88.6204 21.6406 88.9746 21.6406C89.3704 21.6406 89.748 21.5104 90.1074 21.25C90.373 21.0521 90.5475 20.8099 90.6309 20.5234C90.6882 20.3359 90.7168 19.9792 90.7168 19.4531V19.0156ZM100.279 17.1562L98.1152 17.5469C98.0423 17.1146 97.8757 16.7891 97.6152 16.5703C97.36 16.3516 97.0267 16.2422 96.6152 16.2422C96.0684 16.2422 95.6309 16.4323 95.3027 16.8125C94.9798 17.1875 94.8184 17.8177 94.8184 18.7031C94.8184 19.6875 94.9824 20.3828 95.3105 20.7891C95.6439 21.1953 96.0892 21.3984 96.6465 21.3984C97.0632 21.3984 97.4043 21.2812 97.6699 21.0469C97.9355 20.8073 98.123 20.3984 98.2324 19.8203L100.389 20.1875C100.165 21.1771 99.735 21.9245 99.0996 22.4297C98.4642 22.9349 97.6126 23.1875 96.5449 23.1875C95.3314 23.1875 94.3626 22.8047 93.6387 22.0391C92.9199 21.2734 92.5605 20.2135 92.5605 18.8594C92.5605 17.4896 92.9225 16.4245 93.6465 15.6641C94.3704 14.8984 95.3496 14.5156 96.584 14.5156C97.5944 14.5156 98.3965 14.7344 98.9902 15.1719C99.5892 15.6042 100.019 16.2656 100.279 17.1562ZM104.756 20.3594L106.943 20.7266C106.662 21.5286 106.217 22.1406 105.607 22.5625C105.003 22.9792 104.245 23.1875 103.334 23.1875C101.891 23.1875 100.824 22.7161 100.131 21.7734C99.584 21.0182 99.3105 20.0651 99.3105 18.9141C99.3105 17.5391 99.6699 16.4635 100.389 15.6875C101.107 14.9062 102.016 14.5156 103.115 14.5156C104.35 14.5156 105.324 14.9245 106.037 15.7422C106.751 16.5547 107.092 17.8021 107.061 19.4844H101.561C101.576 20.1354 101.753 20.6432 102.092 21.0078C102.43 21.3672 102.852 21.5469 103.357 21.5469C103.701 21.5469 103.99 21.4531 104.225 21.2656C104.459 21.0781 104.636 20.776 104.756 20.3594ZM104.881 18.1406C104.865 17.5052 104.701 17.0234 104.389 16.6953C104.076 16.362 103.696 16.1953 103.248 16.1953C102.769 16.1953 102.373 16.3698 102.061 16.7188C101.748 17.0677 101.594 17.5417 101.6 18.1406H104.881Z" fill="#9DC4F8"/>
</svg>
