<svg width="25" height="25" viewBox="0 0 25 25" fill="none">
<path d="M10.2757 1.9997C10.4549 1.5566 10.7624 1.17713 11.1588 0.909938C11.5551 0.642745 12.0222 0.5 12.5002 0.5C12.9782 0.5 13.4453 0.642745 13.8417 0.909938C14.238 1.17713 14.5455 1.5566 14.7248 1.9997C16.4991 2.48766 18.0642 3.5446 19.1796 5.00818C20.2951 6.47176 20.8993 8.26105 20.8993 10.1012V15.7371L23.0975 19.0343C23.2181 19.215 23.2873 19.425 23.2978 19.642C23.3084 19.859 23.2598 20.0748 23.1573 20.2663C23.0549 20.4578 22.9023 20.618 22.716 20.7296C22.5296 20.8412 22.3164 20.9001 22.0992 20.9001H16.6578C16.5133 21.8997 16.0135 22.8138 15.25 23.475C14.4864 24.1361 13.5102 24.5 12.5002 24.5C11.4902 24.5 10.514 24.1361 9.75046 23.475C8.98691 22.8138 8.48712 21.8997 8.34265 20.9001H2.90123C2.684 20.9001 2.47083 20.8412 2.28448 20.7296C2.09812 20.618 1.94557 20.4578 1.84309 20.2663C1.74061 20.0748 1.69205 19.859 1.70259 19.642C1.71312 19.425 1.78237 19.215 1.90293 19.0343L4.1011 15.7371V10.1012C4.1011 6.23285 6.71682 2.97399 10.2757 1.9997ZM10.8036 20.9001C10.9275 21.2513 11.1573 21.5553 11.4613 21.7704C11.7652 21.9855 12.1284 22.101 12.5008 22.101C12.8732 22.101 13.2364 21.9855 13.5404 21.7704C13.8443 21.5553 14.0741 21.2513 14.198 20.9001H10.8024H10.8036ZM12.5002 4.10187C10.9091 4.10187 9.38312 4.73395 8.25802 5.85905C7.13292 6.98415 6.50085 8.51011 6.50085 10.1012V16.1006C6.5009 16.3376 6.43076 16.5693 6.29927 16.7665L5.14379 18.5004H19.8554L18.7 16.7665C18.5689 16.5692 18.4992 16.3375 18.4996 16.1006V10.1012C18.4996 8.51011 17.8675 6.98415 16.7424 5.85905C15.6173 4.73395 14.0913 4.10187 12.5002 4.10187Z" fill="currentColor"/>
</svg>
