<svg width="25" height="25" viewBox="0 0 25 25" fill="none" xmlns="http://www.w3.org/2000/svg">
<path d="M12.5002 2.9C11.2272 2.9 10.0063 3.40571 9.10608 4.30589C8.20591 5.20606 7.7002 6.42696 7.7002 7.7C7.7002 8.97304 8.20591 10.1939 9.10608 11.0941C10.0063 11.9943 11.2272 12.5 12.5002 12.5C13.7732 12.5 14.9941 11.9943 15.8943 11.0941C16.7945 10.1939 17.3002 8.97304 17.3002 7.7C17.3002 6.42696 16.7945 5.20606 15.8943 4.30589C14.9941 3.40571 13.7732 2.9 12.5002 2.9ZM5.3002 7.7C5.3002 5.79044 6.05876 3.95909 7.40903 2.60883C8.75929 1.25857 10.5906 0.5 12.5002 0.5C14.4098 0.5 16.2411 1.25857 17.5914 2.60883C18.9416 3.95909 19.7002 5.79044 19.7002 7.7C19.7002 9.60956 18.9416 11.4409 17.5914 12.7912C16.2411 14.1414 14.4098 14.9 12.5002 14.9C10.5906 14.9 8.75929 14.1414 7.40903 12.7912C6.05876 11.4409 5.3002 9.60956 5.3002 7.7ZM7.7002 19.7C6.74542 19.7 5.82974 20.0793 5.15461 20.7544C4.47948 21.4295 4.1002 22.3452 4.1002 23.3C4.1002 23.6183 3.97377 23.9235 3.74872 24.1485C3.52368 24.3736 3.21846 24.5 2.9002 24.5C2.58194 24.5 2.27671 24.3736 2.05167 24.1485C1.82662 23.9235 1.7002 23.6183 1.7002 23.3C1.7002 21.7087 2.33234 20.1826 3.45755 19.0574C4.58277 17.9321 6.1089 17.3 7.7002 17.3H17.3002C18.8915 17.3 20.4176 17.9321 21.5428 19.0574C22.6681 20.1826 23.3002 21.7087 23.3002 23.3C23.3002 23.6183 23.1738 23.9235 22.9487 24.1485C22.7237 24.3736 22.4185 24.5 22.1002 24.5C21.7819 24.5 21.4767 24.3736 21.2517 24.1485C21.0266 23.9235 20.9002 23.6183 20.9002 23.3C20.9002 22.3452 20.5209 21.4295 19.8458 20.7544C19.1706 20.0793 18.255 19.7 17.3002 19.7H7.7002Z" fill="currentColor"/>
</svg>
